<svg version="1.1" xmlns="http://www.w3.org/2000/svg" viewBox="0 0 186 40">
<g>
<path d="M10.6,1h-0.3C5.2,1,1,5.2,1,10.3v19.4c0,5.1,4.2,9.3,9.3,9.3h0.7c-2.4-6.3-3.6-12.9-3.6-19.7 C7.4,13,8.5,6.9,10.6,1z"></path>
<path d="M29.7,1H17.3c-2.3,5.7-3.6,11.9-3.6,18.3c0,7,1.5,13.6,4.2,19.7h11.9c5.1,0,9.3-4.2,9.3-9.3V10.3 C39,5.2,34.8,1,29.7,1z M23.8,36.6c-0.7,0.5-1.7,0.4-2.3-0.3c0,0,0,0,0,0l0,0c-3.5-4.6-5.4-10.2-5.4-16c0-5.9,1.9-11.5,5.4-16.1 l0,0c0,0,0,0,0,0c0.6-0.7,1.6-0.8,2.3-0.3c0.7,0.6,0.8,1.6,0.3,2.3c0,0,0,0,0,0l0,0c-3,3.9-4.7,8.8-4.7,14.1c0,5.3,1.8,10.1,4.7,14 l0,0c0,0,0,0,0.1,0.1C24.7,35.1,24.6,36.1,23.8,36.6z M29.8,32c-0.5,0.4-1.2,0.3-1.5-0.2c0,0,0,0,0,0l0,0c-2.5-3.2-4-7.1-4-11.5 c0-4.3,1.5-8.3,4-11.5l0,0c0,0,0,0,0-0.1c0.4-0.5,1.1-0.5,1.5-0.2c0.5,0.4,0.5,1.1,0.2,1.5c0,0,0,0-0.1,0.1 c-2.2,2.8-3.5,6.3-3.5,10.1c0,3.8,1.3,7.3,3.5,10.1l0,0c0,0,0,0,0.1,0.1C30.4,30.9,30.3,31.6,29.8,32z"></path>
</g>
<g>
<path d="M64.5,28.1h-13l-3.4,7.4h-4.9l15-32.3l14.5,32.3h-5L64.5,28.1z M62.6,23.7l-4.5-10.3l-4.7,10.3H62.6z"></path>
<path d="M71.9,5l7.9,20.3l8.3-21.8l7.9,21.8L104.5,5h5L95.9,37.4L88,15.8l-8.2,21.6L67,5H71.9z"></path>
<path d="M123.8,26.9h-13.7c0.1,1.6,0.6,2.8,1.5,3.8c0.9,0.9,2.1,1.4,3.5,1.4c1.1,0,2-0.3,2.7-0.8 c0.7-0.5,1.5-1.5,2.4-2.9l3.7,2.1c-0.6,1-1.2,1.8-1.8,2.5c-0.6,0.7-1.3,1.3-2.1,1.7c-0.7,0.5-1.5,0.8-2.4,1 c-0.9,0.2-1.8,0.3-2.8,0.3c-2.9,0-5.2-0.9-6.9-2.8c-1.7-1.9-2.6-4.3-2.6-7.4c0-3,0.8-5.5,2.5-7.4c1.7-1.9,3.9-2.8,6.7-2.8 c2.8,0,5.1,0.9,6.7,2.7c1.6,1.8,2.4,4.3,2.4,7.4L123.8,26.9z M119.3,23.3c-0.6-2.4-2.1-3.5-4.5-3.5c-0.5,0-1,0.1-1.5,0.2 c-0.5,0.2-0.9,0.4-1.3,0.7c-0.4,0.3-0.7,0.7-1,1.1c-0.3,0.4-0.5,0.9-0.6,1.5H119.3z"></path>
<path d="M131.6,2.2v16.3c1.8-1.8,3.8-2.8,6-2.8c2.6,0,4.7,1,6.5,2.9c1.7,1.9,2.6,4.3,2.6,7.2c0,3-0.9,5.4-2.6,7.3 c-1.7,1.9-3.9,2.9-6.5,2.9c-2.2,0-4.2-0.9-5.9-2.6v2h-4.4V2.2H131.6z M142.1,26c0-1.8-0.5-3.3-1.5-4.5c-1-1.2-2.3-1.8-3.8-1.8 c-1.6,0-3,0.6-4,1.7c-1,1.1-1.5,2.6-1.5,4.4c0,1.9,0.5,3.4,1.5,4.5c1,1.1,2.3,1.7,3.9,1.7c1.5,0,2.8-0.6,3.8-1.7 C141.6,29.2,142.1,27.7,142.1,26z"></path>
<path d="M167.1,26.9h-13.7c0.1,1.6,0.6,2.8,1.5,3.8c0.9,0.9,2.1,1.4,3.5,1.4c1.1,0,2-0.3,2.7-0.8 c0.7-0.5,1.5-1.5,2.4-2.9l3.7,2.1c-0.6,1-1.2,1.8-1.8,2.5c-0.6,0.7-1.3,1.3-2.1,1.7c-0.7,0.5-1.5,0.8-2.4,1 c-0.9,0.2-1.8,0.3-2.8,0.3c-2.9,0-5.2-0.9-6.9-2.8c-1.7-1.9-2.6-4.3-2.6-7.4c0-3,0.8-5.5,2.5-7.4c1.7-1.9,3.9-2.8,6.7-2.8 c2.8,0,5.1,0.9,6.7,2.7c1.6,1.8,2.4,4.3,2.4,7.4L167.1,26.9z M162.6,23.3c-0.6-2.4-2.1-3.5-4.5-3.5c-0.5,0-1,0.1-1.5,0.2 c-0.5,0.2-0.9,0.4-1.3,0.7c-0.4,0.3-0.7,0.7-1,1.1c-0.3,0.4-0.5,0.9-0.6,1.5H162.6z"></path>
<path d="M170.3,16.3h4.4V18c0.8-0.9,1.5-1.4,2.2-1.8c0.6-0.3,1.4-0.5,2.3-0.5c1.2,0,2.4,0.4,3.7,1.1l-2,4.1 c-0.8-0.6-1.7-0.9-2.5-0.9c-2.4,0-3.6,1.8-3.6,5.5v9.9h-4.4V16.3z"></path>
</g>
</svg>